<svg width="225" height="65" viewBox="0 0 225 65" fill="none" xmlns="http://www.w3.org/2000/svg">
<rect width="225" height="65" fill="#34547A"/>
<path d="M51.5563 40H50.0484V34.7422H44.3141V40H42.8141V28.625H44.3141V33.5156H50.0484V28.625H51.5563V40ZM62.2422 37.0312H57.4766L56.4063 40H54.8594L59.2031 28.625H60.5156L64.8672 40H63.3281L62.2422 37.0312ZM57.9297 35.7969H61.7969L59.8594 30.4766L57.9297 35.7969ZM76.6859 40H75.1781V29.8594H69.5688V40H68.0688V28.625H76.6859V40ZM88.1922 28.625H89.6922V40H88.1922V31.2344L82.5906 40H81.0828V28.625H82.5906V37.3906L88.1922 28.625ZM102.394 36.3906C102.253 37.5938 101.808 38.5234 101.058 39.1797C100.313 39.8307 99.3208 40.1562 98.0813 40.1562C96.7375 40.1562 95.6594 39.6745 94.8469 38.7109C94.0396 37.7474 93.6359 36.4583 93.6359 34.8438V33.75C93.6359 32.6927 93.8234 31.763 94.1984 30.9609C94.5786 30.1589 95.1151 29.5443 95.8078 29.1172C96.5005 28.6849 97.3026 28.4688 98.2141 28.4688C99.4224 28.4688 100.391 28.8073 101.12 29.4844C101.849 30.1562 102.274 31.0885 102.394 32.2812H100.886C100.756 31.375 100.472 30.7188 100.034 30.3125C99.6021 29.9062 98.9953 29.7031 98.2141 29.7031C97.2557 29.7031 96.5031 30.0573 95.9563 30.7656C95.4146 31.474 95.1438 32.4818 95.1438 33.7891V34.8906C95.1438 36.125 95.4016 37.1068 95.9172 37.8359C96.4328 38.5651 97.1542 38.9297 98.0813 38.9297C98.9146 38.9297 99.5526 38.7422 99.9953 38.3672C100.443 37.987 100.74 37.3281 100.886 36.3906H102.394ZM112.33 37.0312H107.564L106.494 40H104.947L109.291 28.625H110.603L114.955 40H113.416L112.33 37.0312ZM108.017 35.7969H111.884L109.947 30.4766L108.017 35.7969ZM124.93 29.8594H121.273V40H119.781V29.8594H116.133V28.625H124.93V29.8594ZM129.795 33.2656H132.623C133.811 33.2812 134.738 33.5859 135.405 34.1797C136.071 34.7734 136.405 35.5807 136.405 36.6016C136.405 37.6276 136.069 38.4453 135.397 39.0547C134.725 39.6641 133.808 39.9792 132.647 40H128.295V28.625H129.795V33.2656ZM129.795 34.5V38.7734H132.537C133.282 38.7734 133.86 38.5755 134.272 38.1797C134.689 37.7839 134.897 37.2526 134.897 36.5859C134.897 35.9453 134.696 35.4401 134.295 35.0703C133.899 34.7005 133.334 34.5104 132.6 34.5H129.795ZM147.495 28.625L151.214 37.9062L154.933 28.625H156.878V40H155.378V35.5703L155.519 30.7891L151.784 40H150.636L146.909 30.8125L147.058 35.5703V40H145.558V28.625H147.495ZM169.869 40H168.361V34.7422H162.627V40H161.127V28.625H162.627V33.5156H168.361V28.625H169.869V40ZM180.562 34.7422H175.633V38.7734H181.359V40H174.133V28.625H181.281V29.8594H175.633V33.5156H180.562V34.7422Z" fill="white"/>
</svg>
